<svg width="21" height="22" viewBox="0 0 21 22" fill="none" xmlns="http://www.w3.org/2000/svg">
<path d="M14.8125 4.27083C15.3208 4.27083 15.8083 4.0689 16.1678 3.70945C16.5272 3.35001 16.7292 2.8625 16.7292 2.35417C16.7292 1.84583 16.5272 1.35832 16.1678 0.998879C15.8083 0.639434 15.3208 0.4375 14.8125 0.4375C14.3042 0.4375 13.8167 0.639434 13.4572 0.998879C13.0978 1.35832 12.8958 1.84583 12.8958 2.35417C12.8958 2.8625 13.0978 3.35001 13.4572 3.70945C13.8167 4.0689 14.3042 4.27083 14.8125 4.27083ZM11.3625 17.5917L12.3208 13.375L14.3333 15.2917V21.0417H16.25V13.8542L14.2375 11.9375L14.8125 9.0625C15.4691 9.81501 16.2792 10.4182 17.1884 10.8314C18.0975 11.2447 19.0847 11.4585 20.0833 11.4583V9.54167C18.3967 9.57042 16.825 8.68875 15.9625 7.24167L15.0042 5.70833C14.6592 5.13333 14.0458 4.75 13.375 4.75C13.0875 4.75 12.8958 4.84583 12.6083 4.84583L7.625 6.95417V11.4583H9.54166V8.2L11.2667 7.52917L9.73333 15.2917L5.0375 14.3333L4.65416 16.25L11.3625 17.5917ZM2.83333 7.625C2.57917 7.625 2.33541 7.52403 2.15569 7.34431C1.97596 7.16459 1.875 6.92083 1.875 6.66667C1.875 6.4125 1.97596 6.16875 2.15569 5.98902C2.33541 5.8093 2.57917 5.70833 2.83333 5.70833H5.70833V7.625H2.83333ZM3.79166 3.79167C3.5375 3.79167 3.29374 3.6907 3.11402 3.51098C2.9343 3.33125 2.83333 3.0875 2.83333 2.83333C2.83333 2.57917 2.9343 2.33541 3.11402 2.15569C3.29374 1.97597 3.5375 1.875 3.79166 1.875H8.58333V3.79167H3.79166ZM1.875 11.4583C1.62083 11.4583 1.37708 11.3574 1.19735 11.1776C1.01763 10.9979 0.916664 10.7542 0.916664 10.5C0.916664 10.2458 1.01763 10.0021 1.19735 9.82236C1.37708 9.64263 1.62083 9.54167 1.875 9.54167H5.70833V11.4583H1.875Z" fill="#3E3E3E"/>
</svg>
